<?xml version="1.0" encoding="UTF-8" standalone="no"?>
<svg xmlns="http://www.w3.org/2000/svg" xmlns:xlink="http://www.w3.org/1999/xlink" width="297.000mm" height="210.000mm" viewBox="0.000000 0.000000 297.000000 210.000000" stroke-linejoin="round" stroke-linecap="round" fill="none" fill-rule="evenodd"><desc>Composer Export</desc><script type="text/ecmascript"><![CDATA[
if(typeof(top) != "undefined")
{
	top.ShowPaper = ShowPaper;
}
function ShowHotSpot(evt,hotspotid)
{
	var svgDocument = evt.target.ownerDocument;
	var strId = "hotspot."+hotspotid;
	var hotspot = svgDocument.getElementById(strId);
	if(hotspot)
		hotspot.setAttribute("opacity",".5");
}
function HideHotSpot(evt,hotspotid)
{
	var svgDocument = evt.target.ownerDocument;
	var strId = "hotspot."+hotspotid;
	var hotspot = svgDocument.getElementById(strId);
	if(hotspot)
		hotspot.setAttribute("opacity","0");

	var toolTip = svgDocument.getElementById('ToolTip');
	if(toolTip)
		toolTip.setAttribute("visibility","hidden");
}
function ShowToolTip(evt,hotspotid,strTooltip)
{
	if(strTooltip=="")
	return;

	// change text
	var svgDocument = evt.target.ownerDocument;
	var tiptext = svgDocument.getElementById('ToolTipText');
	if( !tiptext )
	return;
	tiptext.firstChild.nodeValue = " " + strTooltip + "  " ;

	// show tooltip before, else some refresh issue

	var toolTip = svgDocument.getElementById('ToolTip');
	if(!toolTip)
	return;

	toolTip.setAttribute("visibility","visible");
	toolTip.setAttribute("opacity",".95");

	// move tooltip
	// get viewbox

	var root = svgDocument.documentElement;
	var vbox = (root.getAttribute("viewBox")).split(' ');
	var x0 = parseFloat(vbox[0]);
	var y0 = parseFloat(vbox[1]);
	var vboxW = parseFloat(vbox[2]);
	var vboxH = parseFloat(vbox[3]);

	// get default width of svg

	var strW = root.getAttribute("width");
	var svgW = parseFloat(strW);
	if(strW.indexOf('mm') != -1)
	svgW *= 3.779;

	var strH = root.getAttribute("height");
	var svgH = parseFloat(strH);
	if(strH.indexOf('mm') != -1)
	svgH *= 3.779;  	// 96 dpi  -> 96/25.4 = 3.779

	// update the viewbox / width / height if svg is embedded in html with zoom fit all
	var realx0 = x0;
	var realy0 = y0;
	var realvboxW = vboxW;
	var realvboxH = vboxH;
	var realsvgW = svgW;
	var realsvgH = svgH;

	if ((typeof(top) == "undefined") || (typeof(top.svgctl1) != "undefined")) // embedded in html
	{
		// get window size in pxl

		svgW = window.innerWidth;
		svgH = window.innerHeight;

		// calculate real viewbox

		realsvgW = svgW;
		realsvgH = svgH;
		if((svgW / svgH) > (vboxW / vboxH))
		{
			realvboxW = (vboxH * svgW) / svgH;
			realvboxH = vboxH;
			realx0 = x0 - (realvboxW - vboxW)/2 ;
		}
		else
		{
			realvboxH = (vboxW * svgH) / svgW;
			realvboxW = vboxW;
			realy0 = y0 - (realvboxH - vboxH)/2 ;
		}
	}

	// get user zoom/pan

	var newScale = root.currentScale;
	var translation = root.currentTranslate;

	// transform pxl to user unit

	var xPos = (((evt.clientX+10- translation.x)/newScale) * realvboxW)/realsvgW  + realx0 ;
	var yPos = (((evt.clientY+5- translation.y)/newScale) * realvboxH)/ realsvgH  + realy0 ;
	var scaleForWidth = ( (1 / newScale) * realvboxH) / realsvgH;

	// move tooltip

	toolTip.setAttribute("transform", "translate(" + xPos + "," + yPos + ")" );

	// resize tooltip

	var fontsize = 12;
	tiptext.setAttribute("font-size",fontsize*scaleForWidth);
	tiptext.setAttribute("y", fontsize*scaleForWidth);
	var tipBG = svgDocument.getElementById('ToolTipBG');
	var outline = tiptext.getBBox();
	if(tipBG)
	{
		tipBG.setAttribute("stroke-width", 1*scaleForWidth);
		tipBG.setAttribute("width", Number(outline.width) );
		tipBG.setAttribute("height", Number(outline.height) + fontsize*.5*scaleForWidth );
	}
	var ToolTipShadow = svgDocument.getElementById('ToolTipShadow');
	if(ToolTipShadow)
	{
		ToolTipShadow.setAttribute("width", Number(outline.width) );
		ToolTipShadow.setAttribute("height", Number(outline.height) + fontsize*.5*scaleForWidth );
		ToolTipShadow.setAttribute("x", 3*scaleForWidth);
		ToolTipShadow.setAttribute("y", 3*scaleForWidth);
	}
}
function ShowPaper()
{
  var svgDocument = getDocument();
  var paper = svgDocument.getElementById("paperID");
  if(paper)
  {
    paper.setAttribute("transform","scale(1)");
    paper.setAttribute("opacity","1");
    paper.setAttribute("visibility","visible");
  }
  var svg = svgDocument.getRootElement();
  if(svg)
  {
    svg.setAttribute("width","307.000mm");
    svg.setAttribute("height","220.000mm");
    svg.setAttribute("viewBox","-5.000000 -5.000000 307.000000 220.000000");
  }
}
]]></script><defs/><g><path style="fill:#000000;fill-opacity:0.098;fill-rule:evenodd" d="M161.57,11.31L172.82,11.51L173.09,11.78L172.98,12.57L169.96,13.41L170.01,17.75L168.47,19.52L168.46,24.78L169.13,37.61L188.59,37.50L188.60,38.64L188.00,39.06L181.11,39.30L174.49,39.81L169.39,39.79L169.48,44.13L170.32,62.90L169.64,62.81L168.50,39.82L166.33,40.05L167.45,63.06L166.59,63.22L166.44,64.34L163.79,64.49L163.88,67.56L164.08,69.65L164.65,70.61L165.16,80.35L164.52,80.79L164.83,85.70L165.60,86.20L166.94,86.39L167.97,86.89L168.98,87.16L168.99,88.01L165.29,88.40L164.88,89.30L164.32,89.31L164.14,85.12L163.12,84.87L161.86,82.35L161.26,82.42L161.08,81.30L159.31,51.25L153.86,51.36L153.70,49.99L153.18,41.34L152.92,40.29L152.34,40.29L152.42,42.18L151.85,42.37L148.26,42.59L148.35,45.41L149.85,71.15L150.37,71.91L150.64,75.71L150.85,82.41L150.59,82.59L150.85,82.83L150.91,83.95L150.41,83.31L150.14,83.39L150.14,87.17L149.54,87.43L152.68,87.41L153.43,87.70L154.38,87.69L155.24,87.49L154.37,71.62L155.91,71.38L158.55,71.37L158.79,72.65L159.04,77.23L159.03,81.64L158.45,81.84L159.31,82.07L159.55,88.51L158.98,88.71L153.82,89.19L153.57,89.43L155.52,89.73L155.52,90.02L153.12,90.32L152.85,89.43L153.61,104.58L172.21,102.44L173.05,102.27L172.54,89.45L172.28,85.35L170.94,85.65L168.63,85.73L168.64,84.11L169.54,83.69L169.49,83.11L168.39,82.40L168.45,80.61L171.28,80.29L170.72,79.05L170.43,78.83L170.19,70.89L170.49,70.66L170.54,70.11L170.24,69.59L167.88,69.70L167.72,68.31L167.38,67.52L168.64,67.58L168.74,66.80L167.69,66.55L167.61,64.49L170.26,64.09L170.32,62.90L171.53,62.96L171.70,64.07L172.31,64.47L172.25,69.16L171.99,69.34L171.96,70.63L170.92,70.86L171.26,78.00L171.44,78.85L173.30,78.74L173.28,79.86L172.73,80.03L173.00,80.29L173.30,83.85L173.55,85.23L173.47,80.28L174.50,80.04L176.11,80.02L176.13,82.40L175.34,82.04L174.56,82.14L174.56,83.09L176.12,83.11L176.37,83.57L176.52,84.97L181.72,84.46L180.94,67.05L180.85,61.94L182.99,61.94L184.00,81.31L184.16,82.93L191.13,82.31L191.15,83.19L190.87,83.68L184.16,84.35L184.76,96.84L184.67,100.93L185.56,100.92L186.03,110.92L185.46,111.12L147.59,116.01L142.16,116.52L141.95,116.22L141.24,105.99L140.95,105.51L138.67,68.83L138.68,63.75L137.16,41.32L135.00,41.08L137.67,40.58L137.38,39.06L137.09,38.85L136.15,23.49L131.03,18.40L130.73,13.56L132.98,12.81L136.58,12.33L137.12,12.11L137.33,11.55L148.09,11.55L148.28,12.12L151.67,11.89L151.83,11.03L160.83,11.03zM152.34,40.29L152.92,40.29L153.18,41.34L153.70,49.99L153.86,51.36L159.31,51.25L161.08,81.30L161.26,82.42L161.86,82.35L163.12,84.87L164.14,85.12L164.32,89.31L164.88,89.30L165.29,88.40L168.99,88.01L168.98,87.16L167.97,86.89L166.94,86.39L165.60,86.20L164.83,85.70L164.52,80.79L165.16,80.35L164.65,70.61L164.08,69.65L163.88,67.56L163.79,64.49L166.44,64.34L166.59,63.22L167.45,63.06L166.33,40.05L168.50,39.82L169.64,62.81L170.32,62.90L170.26,64.09L167.61,64.49L167.69,66.55L168.74,66.80L168.64,67.58L167.38,67.52L167.72,68.31L167.88,69.70L170.24,69.59L170.54,70.11L170.49,70.66L170.19,70.89L170.43,78.83L170.72,79.05L171.28,80.29L168.45,80.61L168.39,82.40L169.49,83.11L169.54,83.69L168.64,84.11L168.63,85.73L170.94,85.65L172.28,85.35L172.54,89.45L173.05,102.27L172.21,102.44L153.61,104.58L152.85,89.43L153.12,90.32L155.52,90.02L155.52,89.73L153.57,89.43L153.82,89.19L158.98,88.71L159.55,88.51L159.31,82.07L158.45,81.84L159.03,81.64L159.04,77.23L158.79,72.65L158.55,71.37L155.91,71.38L154.37,71.62L155.24,87.49L154.38,87.69L153.43,87.70L152.68,87.41L149.54,87.43L150.14,87.17L150.14,83.39L150.41,83.31L150.91,83.95L150.85,82.83L150.59,82.59L150.85,82.41L150.64,75.71L150.37,71.91L149.85,71.15L148.35,45.41L148.26,42.59L151.85,42.37L152.42,42.18zM189.78,30.86L190.35,30.86L191.04,42.97L195.74,42.87L195.74,43.44L192.04,43.88L195.45,43.85L200.03,143.69L200.29,154.20L195.44,155.24L195.20,153.87L190.12,44.34L189.90,44.12L186.44,44.13L190.37,43.64zM188.55,33.06L187.98,33.02L188.06,32.48L188.33,32.43zM118.65,33.09L119.24,39.91L126.88,39.55L133.59,39.53L133.28,39.81L133.35,41.16L119.57,41.66L119.59,46.77L116.67,47.19L119.61,47.20L122.12,83.85L122.54,88.53L127.47,88.26L134.10,87.67L134.37,89.03L122.53,90.21L126.71,151.32L127.38,160.33L130.27,160.06L181.88,150.81L182.73,150.80L182.98,153.62L182.91,156.43L127.89,166.59L127.73,167.70L127.43,167.91L121.54,169.00L112.97,47.69L110.56,47.44L112.95,47.01L113.35,46.14L118.84,46.00L117.98,32.90L118.55,32.90zM117.04,35.05L116.69,35.05L116.69,34.71L117.04,34.71zM188.83,41.93L188.49,41.93L188.49,41.59L188.83,41.59zM117.81,44.91L117.48,44.98L117.53,44.38zM188.34,56.60L189.35,58.64L189.35,62.04L189.09,62.80L188.22,64.00L187.56,64.03L186.55,63.22L186.02,61.97L185.76,60.45L185.46,60.23L185.68,57.87L186.70,56.34L187.83,56.34zM112.19,62.22L112.45,62.72L112.97,65.28L112.73,67.41L112.43,67.91L111.96,67.83L111.41,66.56L111.16,65.29L110.86,65.07L110.91,63.04L111.36,61.94L111.68,61.91zM174.30,66.00L173.74,66.02L173.46,66.51L173.80,67.04L175.08,67.09L175.36,66.79L175.54,69.09L172.95,69.18L172.79,67.30L172.70,63.98L175.35,63.98L175.37,66.36zM113.71,69.15L113.38,69.07L113.76,68.86zM114.74,84.45L114.40,84.45L114.40,84.10L114.74,84.10zM171.80,87.40L171.77,88.29L171.19,88.30L171.20,86.87L171.48,86.88zM115.51,88.94L115.52,90.35L115.29,90.58L114.98,90.27L114.75,89.24L114.51,89.26L114.49,87.98L115.01,87.88zM171.79,89.26L171.47,89.49L166.35,89.96L165.34,90.23L161.08,90.81L156.38,91.05L156.38,90.48L165.34,89.47L166.08,89.19L171.79,88.68zM115.54,93.78L115.54,94.12L115.26,94.05L115.26,93.50zM148.53,192.28L252.52,169.41L252.42,176.54L149.04,200.32zM165.05,12.82L166.97,12.57L167.95,29.11L168.22,37.86L166.35,37.85L166.14,37.55L165.66,28.09L165.41,17.91zM155.71,12.83L154.12,13.07L151.80,13.14L151.80,12.57L156.00,12.55zM137.89,12.90L139.70,12.81L140.71,27.33L141.23,38.63L139.68,38.88L139.43,38.03zM156.69,13.34L160.09,12.32L160.33,16.45L158.79,16.98L157.68,19.94L158.55,38.12L156.91,38.12L156.51,34.70L147.74,34.71L156.51,34.30L156.02,23.27L146.98,23.35L147.06,19.50L147.86,17.24L148.45,16.81L149.30,16.65L149.28,13.82L155.46,13.31zM148.62,16.48L148.45,16.81L147.74,16.88L147.09,17.24L146.30,19.50L146.31,23.51L147.09,38.62L145.79,38.54L144.96,23.51L145.04,19.95L144.70,13.58L147.77,12.54L148.35,12.54zM139.59,41.07L141.51,40.83L142.93,64.57L143.50,64.76L143.51,65.86L142.67,66.03L141.13,66.12zM145.96,40.81L147.34,40.81L148.35,57.88L148.62,65.61L147.49,65.61L146.06,42.86zM159.05,44.84L159.05,46.52L158.51,45.92L158.51,44.94L158.83,44.61zM159.99,44.86L160.83,44.88L160.84,46.01L160.48,46.68L159.71,46.68L160.07,46.27zM193.71,48.18L193.60,49.24L192.65,49.24L192.56,47.94L193.44,47.91zM117.56,52.02L117.47,53.06L116.27,53.05L116.01,52.78L116.01,51.86L116.44,51.49L117.03,51.49zM145.21,65.76L146.32,65.76L146.02,66.03L146.06,71.23L145.81,69.85L145.51,66.03zM148.62,68.07L148.61,68.91L148.28,69.14L147.46,69.14L147.05,68.87L147.07,67.87L147.57,67.80zM141.77,69.20L141.50,69.47L141.41,68.54L141.73,68.54zM194.73,71.10L194.61,72.16L193.66,72.16L193.66,70.93L194.45,70.82zM143.80,72.42L143.46,72.92L143.77,79.02L144.04,81.37L144.29,81.33L144.29,82.68L142.16,82.94L141.73,75.20L141.64,71.62L143.51,71.63zM147.76,71.38L148.25,71.10L149.12,71.10L149.63,82.17L148.77,82.17L148.59,80.82L148.29,80.60zM119.36,77.23L119.36,77.82L118.98,78.26L118.06,78.26L117.79,77.99L117.76,77.03L117.98,76.72L118.82,76.70zM195.23,79.78L195.23,80.37L194.84,80.81L194.20,80.81L193.92,80.54L193.92,79.61L194.35,79.24L194.69,79.24zM145.78,81.12L144.93,81.05L145.91,80.97zM148.37,82.33L146.98,82.57L147.26,87.49L147.85,87.69L146.73,87.68L146.83,86.66L146.53,82.58L146.23,82.31L147.35,82.09zM148.68,84.52L149.64,84.88L149.55,85.65L148.59,85.66L148.01,85.45L148.02,84.62L148.60,84.40zM119.86,86.39L119.76,87.43L118.55,87.43L118.56,86.23L118.99,85.86L119.32,85.86zM142.78,86.01L142.51,86.28L142.43,85.34L142.74,85.34z"/><g id="Actor_.0"><g style="stroke:#000000;stroke-width:0.176;stroke-opacity:0.55"><path d="M141.25,69.60L141.33,69.58L141.51,69.45L141.64,69.27L141.71,69.06L141.72,68.83L141.65,68.61L141.52,68.42L141.35,68.29L141.16,68.23"/><path d="M153.86,65.36L152.61,65.45L150.76,65.50L150.55,65.51L141.04,66.15"/><path d="M142.20,85.04L142.39,85.09L142.56,85.22L142.69,85.40L142.75,85.62L142.75,85.84L142.68,86.06L142.55,86.24L142.37,86.37L142.28,86.39"/><path d="M147.47,69.13L147.27,69.11L147.08,69.02L146.93,68.86L146.84,68.66L146.81,68.43L146.84,68.20L146.95,68.00L147.10,67.85L147.29,67.77L147.39,67.75"/><path d="M148.47,85.74L148.26,85.72L148.08,85.63L147.93,85.48L147.84,85.28L147.81,85.05L147.84,84.83L147.94,84.63L148.10,84.48L148.28,84.39L148.39,84.37L148.49,84.37"/><path d="M148.07,69.13L148.27,69.08L148.44,68.96L148.57,68.78L148.64,68.56L148.64,68.33L148.58,68.12L148.46,67.93L148.29,67.80L148.09,67.74"/><path d="M149.08,84.41L149.28,84.47L149.45,84.59L149.57,84.77L149.63,84.99L149.63,85.22L149.56,85.43L149.43,85.61L149.26,85.73L149.06,85.79"/><path d="M155.15,87.61L153.29,87.45L153.00,87.43L152.59,87.44"/><path d="M153.90,87.73L152.61,65.45"/></g><g style="stroke:#000000;stroke-width:0.529;stroke-opacity:0.55"><path d="M141.03,66.13L149.89,65.53L150.75,65.47L151.32,65.44L152.00,65.41L153.86,65.36L155.15,87.61L153.90,87.73L152.60,87.61"/><path d="M148.50,84.37L148.69,84.42L148.85,84.55L148.98,84.73L149.04,84.94L149.04,85.17L148.97,85.38L148.84,85.56L148.67,85.68L148.47,85.74L149.06,85.79L148.85,85.77L148.67,85.68L148.52,85.53L148.43,85.33L148.39,85.10L148.43,84.88L148.53,84.68L148.69,84.52L148.87,84.43L149.08,84.41L148.49,84.37"/><path d="M147.68,69.08L147.47,69.13L148.07,69.13L147.86,69.11L147.67,69.01L147.52,68.85L147.43,68.65L147.40,68.42L147.43,68.20L147.54,68.00L147.69,67.84L147.88,67.76L148.09,67.74L147.39,67.75L147.50,67.75L147.69,67.81L147.86,67.94L147.99,68.12L148.05,68.34L148.05,68.57L147.98,68.78L147.85,68.96L147.68,69.08"/></g></g><g id="Actor_.1"><g style="stroke:#000000;stroke-width:0.176;stroke-opacity:0.55"><path d="M167.38,64.45L166.17,64.53L164.22,64.59L164.06,64.59L164.06,64.58"/><path d="M171.58,85.59L166.05,86.12L165.66,86.16L165.38,86.20L165.24,86.24"/><path d="M167.36,86.46L166.17,64.53"/><path d="M178.32,63.63L165.40,64.50"/><path d="M166.58,86.18L166.58,86.19L166.60,86.19L168.56,86.34"/><path d="M167.56,67.70L167.46,67.69L167.27,67.63L167.11,67.51L166.99,67.33L166.93,67.12L166.94,66.89L167.01,66.68L167.13,66.51L167.30,66.39L167.49,66.34"/><path d="M168.33,83.91L168.14,83.85L167.98,83.73L167.87,83.56L167.81,83.35L167.81,83.13L167.88,82.92L168.00,82.74L168.17,82.62L168.36,82.57"/><path d="M168.13,66.33L168.32,66.35L168.50,66.45L168.64,66.60L168.73,66.80L168.76,67.02L168.72,67.24L168.62,67.44L168.48,67.58L168.30,67.67L168.10,67.68"/><path d="M168.97,83.95L169.17,83.93L169.35,83.84L169.49,83.69L169.59,83.50L169.63,83.28L169.60,83.06L169.51,82.87L169.37,82.72L169.19,82.63L169.00,82.61"/><path d="M174.80,81.99L174.62,82.04L174.45,82.16L174.33,82.33L174.26,82.54L174.26,82.76L174.32,82.97L174.43,83.14L174.59,83.26L174.77,83.32"/><path d="M174.04,67.23L173.94,67.23L173.76,67.17L173.60,67.04L173.48,66.87L173.42,66.66L173.43,66.43L173.50,66.23L173.62,66.06L173.78,65.94L173.97,65.89"/><path d="M175.43,83.36L175.62,83.34L175.80,83.25L175.94,83.10L176.04,82.91L176.07,82.69L176.05,82.47L175.96,82.28L175.82,82.13L175.65,82.04L175.46,82.02"/><path d="M174.62,65.87L174.82,65.90L174.99,65.99L175.13,66.14L175.22,66.34L175.25,66.56L175.21,66.78L175.11,66.97L174.97,67.12L174.79,67.20L174.60,67.22"/><path d="M178.72,84.67L177.65,63.65"/></g><g style="stroke:#000000;stroke-width:0.529;stroke-opacity:0.55"><path d="M171.58,85.70L166.68,86.16L166.58,86.18L165.40,64.50L167.38,64.45L168.56,86.34L167.36,86.46L165.41,86.30L165.25,86.28L165.24,86.24L164.06,64.58L164.48,64.54L164.87,64.51L177.65,63.65L178.32,63.63L179.37,84.61"/><path d="M167.63,67.68L167.56,67.70L168.10,67.68L167.91,67.63L167.75,67.50L167.63,67.32L167.57,67.11L167.58,66.88L167.64,66.67L167.77,66.50L167.93,66.38L168.13,66.33L167.49,66.34L167.68,66.37L167.86,66.46L168.00,66.61L168.09,66.81L168.12,67.03L168.08,67.25L167.98,67.45L167.84,67.59L167.66,67.68L167.63,67.68"/><path d="M168.33,83.91L168.43,83.91L168.53,83.89L168.71,83.80L168.75,83.76L168.85,83.65L168.95,83.46L168.98,83.24L168.96,83.02L168.87,82.83L168.73,82.68L168.55,82.59L168.36,82.57L169.00,82.61L168.81,82.66L168.64,82.78L168.52,82.96L168.45,83.17L168.45,83.39L168.51,83.60L168.62,83.77L168.78,83.90L168.97,83.95L168.33,83.91"/><path d="M174.31,67.13L174.13,67.21L174.04,67.23L174.60,67.22L174.41,67.16L174.25,67.03L174.14,66.86L174.08,66.64L174.08,66.42L174.15,66.21L174.27,66.04L174.44,65.92L174.62,65.87L173.97,65.89L174.16,65.91L174.34,66.00L174.47,66.16L174.56,66.35L174.59,66.57L174.55,66.79L174.46,66.98L174.31,67.13"/><path d="M175.43,83.36L174.77,83.32L174.87,83.32L174.97,83.30L175.14,83.21L175.29,83.06L175.38,82.87L175.42,82.65L175.39,82.44L175.30,82.24L175.17,82.09L174.99,82.01L174.80,81.99L175.46,82.02L175.27,82.08L175.11,82.20L174.98,82.37L174.92,82.58L174.91,82.80L174.97,83.01L175.09,83.18L175.24,83.30L175.43,83.36"/></g></g><g id="Actor_.2"><g style="stroke:#000000;stroke-width:0.176"><path d="M117.04,38.39L117.24,38.45L117.43,38.69L117.58,39.07L117.69,39.57L117.74,40.12L117.73,40.66L117.65,41.13L117.51,41.49L117.34,41.69L117.15,41.71"/></g><g style="stroke:#000000;stroke-width:0.529"><path d="M117.04,38.39L116.86,38.51L116.78,38.63L116.71,38.79L116.60,39.21L116.55,39.73L116.57,40.27L116.65,40.80L116.78,41.24L116.96,41.56L117.15,41.71"/><path d="M119.23,41.64L133.25,41.11"/><path d="M136.61,37.73L119.00,38.32"/><path d="M166.31,36.74L166.03,36.75"/><path d="M168.98,36.65L187.83,36.02L188.09,36.07L188.33,36.29L188.52,36.64L188.64,37.10L188.68,37.60L188.64,38.09L188.51,38.53L188.31,38.86L188.07,39.05L187.81,39.08L177.26,39.47"/></g></g><g id="Actor_.3"><g style="stroke:#000000;stroke-width:0.176"/><g style="stroke:#000000;stroke-width:0.529"><path d="M134.35,89.08L122.47,90.20"/><path d="M122.25,86.97L134.06,85.91"/><path d="M183.89,81.39L190.18,80.82L190.44,80.83L190.69,81.00L190.91,81.31L191.07,81.73L191.16,82.21L191.16,82.70L191.08,83.14L190.92,83.49L190.71,83.72L190.45,83.79L184.04,84.39"/></g></g><g id="Actor_.4"><g style="stroke:#000000;stroke-width:0.176"><path d="M183.78,44.47L190.25,43.71L189.65,30.87"/><path d="M188.48,33.06L188.47,33.17L188.43,33.37L188.36,33.52L188.26,33.63L188.16,33.66L188.05,33.63L187.95,33.53L187.88,33.37L187.83,33.18L187.82,32.97L187.85,32.76L187.91,32.59L187.99,32.46L188.10,32.39L188.20,32.39L188.31,32.45L188.39,32.58L188.45,32.76L188.48,32.92"/><path d="M188.90,41.93L188.88,41.79L188.82,41.62L188.73,41.49L188.63,41.41L188.52,41.41L188.42,41.48L188.33,41.60L188.27,41.78L188.25,41.98L188.26,42.19L188.30,42.38L188.38,42.54L188.47,42.64L188.58,42.68L188.69,42.65L188.78,42.55L188.85,42.40L188.90,42.21L188.90,42.10"/><path d="M188.15,38.99L188.37,39.07L188.63,38.99L188.71,38.90"/><path d="M188.12,36.10L188.23,36.02L188.49,36.02L188.66,36.14"/><path d="M190.25,43.71L195.63,43.47"/></g><g style="stroke:#000000;stroke-width:0.529"><path d="M183.38,36.17L183.18,32.01L189.65,30.87L190.31,30.86L190.86,42.91L195.60,42.71L195.63,43.47L190.21,44.11"/><path d="M183.53,39.24L183.78,44.47L188.82,44.25"/><path d="M188.90,42.00L188.90,41.93L188.89,41.95L188.90,42.10L188.90,42.00"/><path d="M188.43,36.47L188.63,36.16L188.66,36.14L188.74,36.19L188.94,36.50L189.09,36.93L189.16,37.42L189.14,37.92L189.03,38.39L188.86,38.75L188.71,38.90L188.53,38.71L188.47,38.59"/><path d="M188.48,32.92L188.47,32.95L188.48,33.06L188.48,32.96L188.48,32.92"/></g></g><g id="Actor_.5"><g style="stroke:#000000;stroke-width:0.176"><path d="M108.43,47.79L113.09,47.05L113.03,46.21"/><path d="M113.09,47.05L119.57,46.77"/><path d="M117.85,32.81L118.74,45.97L113.90,46.17"/><path d="M117.59,41.29L117.49,41.54L117.31,41.71L117.11,41.70L116.92,41.51L116.75,41.17L116.63,40.71L116.56,40.17L116.56,39.63L116.62,39.13L116.73,38.73L116.89,38.47L117.08,38.39L117.28,38.48L117.46,38.75L117.47,38.79"/><path d="M116.80,35.82L116.72,35.75L116.65,35.61L116.59,35.42L116.57,35.19L116.56,34.96L116.59,34.75L116.64,34.58L116.70,34.48L116.78,34.44L116.86,34.47L116.94,34.58L117.00,34.75L117.04,34.97L117.06,35.19L117.05,35.42L117.01,35.61L116.95,35.75L116.94,35.76L116.88,35.83L116.80,35.82"/><path d="M117.47,45.65L117.39,45.57L117.32,45.42L117.27,45.23L117.24,45.01L117.24,44.78L117.26,44.57L117.31,44.41L117.38,44.30L117.45,44.27L117.54,44.31L117.61,44.43L117.67,44.60L117.71,44.81L117.73,45.04L117.72,45.26L117.68,45.45L117.62,45.58L117.55,45.65L117.47,45.65"/></g><g style="stroke:#000000;stroke-width:0.529"><path d="M112.14,47.62L108.43,47.79L108.37,46.97L113.03,46.21L113.90,46.17"/><path d="M113.90,46.17L113.05,33.99L117.85,32.81L118.63,32.79L119.57,46.77L115.59,47.38"/><path d="M117.59,41.29L117.63,41.21L117.72,40.75L117.74,40.22L117.71,39.67L117.61,39.16L117.47,38.79"/></g></g><g id="Actor_.6"><g style="stroke:#000000;stroke-width:0.176"><path d="M148.49,192.30L252.39,169.37"/></g><g style="stroke:#000000;stroke-width:0.529"><path d="M148.49,192.30L155.97,184.65L231.41,168.56L252.39,169.37L252.59,176.47L148.99,200.35L148.49,192.30"/></g></g><g id="Actor_.7"><g style="stroke:#000000;stroke-width:0.176"><path d="M109.97,61.30L110.03,61.38L110.09,61.40L110.15,61.37L110.20,61.28L110.24,60.99L110.23,60.76L110.16,60.49L110.11,60.38L110.05,60.33L109.99,60.33L109.93,60.39L109.89,60.50L109.87,60.66L109.89,61.01L109.97,61.30"/><path d="M110.57,69.66L110.63,69.75L110.69,69.78L110.75,69.74L110.79,69.66L110.82,69.53L110.84,69.37L110.83,69.19L110.76,68.87L110.70,68.76L110.61,68.70L110.58,68.70L110.53,68.76L110.49,68.87L110.47,69.02L110.48,69.37L110.57,69.66"/><path d="M111.30,67.49L111.65,67.97L112.00,68.14L112.21,68.03L112.03,67.95L111.68,67.46L111.39,66.71L111.19,65.78L111.09,64.76L111.10,63.76L111.23,62.89L111.46,62.25L111.76,61.91L111.74,61.89L111.39,61.91L111.08,62.27L110.85,62.92L110.72,63.79L110.70,64.78L110.81,65.80L111.01,66.74L111.30,67.49"/><path d="M112.21,68.03L112.34,67.96L112.62,67.46L112.81,66.69L112.88,65.74L112.84,64.70L112.68,63.70L112.43,62.84L112.10,62.21L111.76,61.91"/><path d="M113.45,69.63L113.52,69.73L113.58,69.76L113.64,69.72L113.69,69.64L113.72,69.51L113.74,69.35L113.73,69.16L113.66,68.84L113.60,68.73L113.54,68.68L113.47,68.67L113.42,68.73L113.38,68.84L113.35,68.99L113.37,69.35L113.45,69.63"/><path d="M112.92,61.20L112.86,61.12L112.81,60.98L112.75,60.64L112.78,60.31L112.82,60.19L112.87,60.13L112.90,60.12L112.94,60.12L113.00,60.18L113.06,60.29L113.12,60.57L113.14,60.80L113.09,61.10L113.04,61.19L112.99,61.22L112.92,61.20"/><path d="M121.45,168.96L112.97,47.49"/><path d="M114.71,90.63L114.81,90.79L115.01,90.90L115.19,90.84L115.23,90.77L115.20,90.75L115.01,90.48L114.86,90.07L114.75,89.58L114.70,89.04L114.70,88.52L114.78,88.09L114.90,87.78L114.94,87.75L114.88,87.69L114.68,87.66L114.52,87.81L114.39,88.12L114.32,88.56L114.31,89.07L114.37,89.61L114.48,90.10L114.63,90.51L114.71,90.63"/><path d="M114.52,85.10L114.45,84.99L114.38,84.82L114.33,84.61L114.31,84.39L114.32,84.17L114.35,83.99L114.40,83.86L114.47,83.79L114.55,83.80L114.63,83.88L114.70,84.02L114.71,84.07L114.70,84.36L114.72,84.58L114.78,84.83L114.74,85.02L114.68,85.12L114.60,85.15L114.52,85.10"/><path d="M114.71,84.07L114.79,84.43L114.78,84.83"/><path d="M115.19,94.70L115.12,94.58L115.05,94.41L115.01,94.20L114.99,93.98L114.99,93.77L115.02,93.59L115.07,93.46L115.14,93.40L115.22,93.41L115.30,93.49L115.37,93.64L115.37,93.94L115.39,94.16L115.46,94.43L115.41,94.63L115.35,94.72L115.27,94.75L115.19,94.70"/><path d="M115.46,94.43L115.46,94.05L115.38,93.68"/><path d="M114.94,87.75L115.06,87.88L115.24,88.22L115.37,88.69L115.45,89.21L115.48,89.75L115.43,90.23L115.33,90.61L115.23,90.77"/><path d="M116.56,51.44L116.38,51.48L116.14,51.64L115.96,51.88L115.86,52.17L115.86,52.48L115.95,52.78L116.13,53.03L116.37,53.21L116.65,53.30L116.93,53.28L117.20,53.17L117.41,52.97L117.55,52.70L117.60,52.39L117.56,52.09L117.42,51.81L117.21,51.59L116.95,51.46L116.66,51.42L116.56,51.44L116.80,51.48L117.06,51.61L117.27,51.83L117.41,52.11L117.45,52.41L117.40,52.71L117.26,52.98L117.05,53.18L116.81,53.29"/><path d="M117.98,78.25L118.10,78.33L118.37,78.41L118.66,78.39L118.92,78.27L119.13,78.06L119.27,77.80L119.32,77.50L119.28,77.19L119.14,76.92L118.94,76.72L118.67,76.59L118.39,76.56L118.13,76.63L117.87,76.80L117.69,77.04L117.60,77.33L117.60,77.63L117.69,77.92L117.86,78.16L117.98,78.25"/><path d="M119.25,87.68L119.01,87.70L118.93,87.68L119.15,87.66L119.41,87.53L119.62,87.33L119.76,87.06L119.81,86.76L119.77,86.47L119.63,86.19L119.42,85.99L119.17,85.87L119.31,85.88L119.57,86.00L119.78,86.21L119.91,86.48L119.96,86.78L119.91,87.08L119.77,87.34L119.56,87.55L119.30,87.67L119.25,87.68"/><path d="M118.93,87.68L118.74,87.62L118.50,87.46L118.33,87.22L118.24,86.93L118.24,86.63L118.34,86.34L118.51,86.10L118.75,85.93L119.03,85.86L119.17,85.87"/><path d="M118.32,78.40L118.51,78.38L118.77,78.26L118.99,78.06L119.12,77.79L119.17,77.49L119.13,77.19L119.00,76.92L118.79,76.71L118.53,76.58L118.37,76.57"/></g><g style="stroke:#000000;stroke-width:0.529"><path d="M109.13,60.48L108.25,48.23L112.97,47.49L119.56,47.21L127.73,167.79L121.45,168.96L116.64,165.93L109.13,60.48"/></g></g><g id="Actor_.8"><g style="stroke:#000000;stroke-width:0.176"><path d="M102.06,161.51L116.36,162.04"/><path d="M127.24,160.51L182.72,150.65L186.74,146.80"/><path d="M183.01,156.38L182.72,150.65"/></g><g style="stroke:#000000;stroke-width:0.529"><path d="M102.52,167.59L102.06,161.51L116.15,159.06"/><path d="M127.01,157.18L186.74,146.80"/><path d="M127.65,166.62L183.01,156.38"/></g></g><g id="Actor_.9"><g style="stroke:#000000;stroke-width:0.176"><path d="M102.06,161.51L148.49,192.30L155.98,184.65"/><path d="M148.49,192.30L148.99,200.35"/></g><g style="stroke:#000000;stroke-width:0.529"><path d="M148.99,200.35L102.52,167.59L102.06,161.51L116.36,162.04"/><path d="M155.98,184.65L127.73,167.79"/></g></g><g id="Actor_.10"><g style="stroke:#000000;stroke-width:0.176"><path d="M182.72,150.65L231.41,168.56L252.39,169.37"/></g><g style="stroke:#000000;stroke-width:0.529"><path d="M188.40,147.37L186.75,146.80L182.72,150.65L183.01,156.38L220.09,170.97"/><path d="M200.28,151.45L252.39,169.37L252.59,176.47"/></g></g><g id="Actor_.11"><g style="stroke:#000000;stroke-width:0.176"><path d="M187.95,64.06L187.57,64.08L186.91,63.67L186.34,62.89L185.92,61.81L185.70,60.56L185.68,60.23L185.69,59.26L185.90,58.05L186.32,57.06L186.87,56.41L187.38,56.21L187.21,56.17L186.55,56.42L185.99,57.08L185.58,58.07L185.37,59.28L185.38,60.58L185.61,61.83L186.02,62.91L186.59,63.69L187.25,64.10L187.93,64.08L188.55,63.63L189.06,62.81L189.38,61.69L189.43,61.12L189.32,58.91L189.37,59.08L189.49,60.40L189.43,61.12"/><path d="M187.38,56.21L187.89,56.34L188.52,56.93L189.04,57.88L189.32,58.91"/><path d="M189.85,77.94L189.89,78.14L189.95,78.31L190.04,78.44L190.15,78.51L190.26,78.52L190.36,78.45L190.44,78.33L190.49,78.16L190.50,77.96L190.48,77.76L190.43,77.57L190.35,77.42L190.25,77.31L190.15,77.28L190.04,77.31L189.95,77.40L189.88,77.55L189.85,77.74L189.85,77.94"/><path d="M195.16,155.22L189.98,44.12"/><path d="M190.70,86.14L190.61,86.31L190.64,86.94L190.68,87.05L190.80,87.20L190.77,87.23L190.67,87.30L190.56,87.29L190.46,87.21L190.37,87.08L190.30,86.91L190.26,86.71L190.26,86.51L190.30,86.32L190.36,86.18L190.45,86.09L190.56,86.06L190.67,86.10L190.77,86.21L190.85,86.36L190.90,86.55L190.92,86.76L190.90,86.95L190.85,87.12L190.80,87.20"/><path d="M190.64,86.94L190.58,86.63L190.58,86.47L190.61,86.31"/><path d="M190.52,83.77L190.58,83.77L190.66,83.72"/><path d="M190.76,83.66L190.82,83.63L190.87,83.55"/><path d="M190.96,83.41L191.01,83.34L191.04,83.23"/><path d="M191.09,81.85L191.14,82.09"/><path d="M191.16,82.58L191.16,82.34"/><path d="M191.10,83.03L191.13,82.93L191.14,82.81"/><path d="M190.63,80.96L190.57,80.90L190.50,80.88"/><path d="M190.75,81.08L190.81,81.15L190.86,81.23"/><path d="M190.95,81.42L191.00,81.52L191.03,81.62"/><path d="M190.25,80.83L190.31,80.81L190.39,80.84"/><path d="M190.38,78.42L190.27,78.28L190.23,78.17L190.20,77.55L190.29,77.35"/><path d="M190.20,77.55L190.17,77.71L190.17,77.86L190.23,78.17"/><path d="M192.37,48.96L192.30,48.68L192.30,48.39L192.39,48.13L192.54,47.91L192.75,47.77L192.98,47.71L193.22,47.75L193.43,47.87L193.60,48.07L193.71,48.32L193.74,48.60L193.70,48.88L193.58,49.12L193.40,49.30L193.18,49.41L192.94,49.42L192.71,49.34L192.51,49.18L192.37,48.96"/><path d="M193.46,71.96L193.42,71.90L193.35,71.63L193.36,71.35L193.44,71.09L193.59,70.87L193.80,70.73L194.03,70.66L194.26,70.69L194.48,70.80L194.65,71.00L194.75,71.24L194.79,71.52L194.74,71.79L194.63,72.03L194.44,72.22L194.22,72.33L194.11,72.35L193.99,72.35L193.76,72.28L193.56,72.12L193.46,71.96"/><path d="M192.99,49.42L193.20,49.32L193.38,49.14L193.50,48.90L193.54,48.62L193.51,48.34L193.40,48.09L193.23,47.89L193.02,47.77L192.85,47.74"/><path d="M194.49,80.84L194.37,80.84L194.15,80.77L193.95,80.61L193.81,80.39L193.74,80.13L193.75,79.85L193.83,79.59L193.98,79.37L194.19,79.22L194.42,79.15L194.65,79.18L194.86,79.29L195.03,79.48L195.14,79.73L195.17,80.00L195.13,80.27L195.01,80.52L194.83,80.70L194.61,80.81L194.49,80.84"/><path d="M194.38,79.16L194.45,79.17L194.66,79.28L194.83,79.47L194.94,79.72L194.97,79.99L194.93,80.27L194.81,80.51L194.63,80.69L194.41,80.81L194.33,80.82"/><path d="M193.96,72.34L194.02,72.33L194.24,72.22L194.42,72.04L194.54,71.79L194.59,71.52L194.55,71.24L194.45,71.00L194.28,70.80L194.06,70.69L193.97,70.68"/></g><g style="stroke:#000000;stroke-width:0.529"><path d="M185.19,81.27L183.43,44.88L189.98,44.12L195.45,43.88L200.40,154.24L195.16,155.22L188.67,152.83L185.34,84.27"/></g></g><g id="Actor_.12"><g style="stroke:#000000;stroke-width:0.176"><path d="M133.26,41.39L137.56,40.65L137.45,38.90"/><path d="M137.56,40.65L153.00,40.08L152.28,40.19L152.29,40.43"/><path d="M153.00,40.08L153.02,40.07L153.68,51.45L152.94,51.52"/><path d="M153.68,51.45L166.08,50.82"/><path d="M159.06,44.23L159.23,44.14L159.64,44.08L160.04,44.18L160.40,44.42L160.67,44.78L160.82,45.21L160.85,45.67L160.74,46.12L160.51,46.49L160.18,46.76L159.79,46.90L159.38,46.87"/><path d="M165.50,39.94L165.48,39.61L179.94,39.08"/><path d="M170.06,40.00L171.48,39.79L171.63,39.76L171.64,39.74L171.52,39.73L171.28,39.73L170.05,39.77"/></g><g style="stroke:#000000;stroke-width:0.529"><path d="M133.26,41.39L133.16,39.69L137.45,38.90L179.86,37.42L179.94,39.08L174.86,39.82L170.06,40.00L170.05,39.77L165.50,39.94L166.08,50.82L165.31,50.89L152.94,51.52L152.29,40.43L141.19,40.85L140.75,40.88L140.00,40.95L139.76,40.98L138.51,41.19L133.26,41.39"/><path d="M158.48,46.04L158.46,46.01L158.37,45.55L158.41,45.09L158.58,44.67L158.87,44.34L159.06,44.23L159.28,44.28L159.63,44.52L159.90,44.88L160.06,45.31L160.09,45.77L159.98,46.21L159.75,46.59L159.42,46.86L159.38,46.87L159.00,46.71L158.68,46.41L158.48,46.04"/></g></g><g id="Actor_.13"><g style="stroke:#000000;stroke-width:0.176"><path d="M171.56,85.35L172.22,85.40L173.11,102.23"/><path d="M172.22,85.40L181.70,84.50L181.01,84.46L176.32,84.90"/><path d="M175.09,62.14L181.07,61.90L179.89,61.98L181.01,84.46"/><path d="M180.00,61.98L180.58,61.96L181.70,84.50"/><path d="M180.58,61.96L182.93,61.80"/></g><g style="stroke:#000000;stroke-width:0.529"><path d="M172.46,102.31L171.56,85.35L176.32,84.90L176.31,84.84"/><path d="M176.00,79.88L175.44,69.11"/><path d="M184.84,100.88L182.93,61.80L176.23,62.07L175.09,62.14L175.17,63.81"/></g></g><g id="Actor_.14"><g style="stroke:#000000;stroke-width:0.176"><path d="M137.03,38.98L136.06,23.53"/><path d="M138.63,64.68L137.17,41.24"/><path d="M145.71,38.61L144.80,23.39"/><path d="M147.33,65.65L145.84,40.68"/><path d="M147.11,38.56L146.02,20.23L146.77,20.22"/><path d="M146.02,20.23L147.03,17.09L148.57,16.63L148.32,12.36"/><path d="M148.72,65.60L147.23,40.62"/><path d="M147.03,17.09L147.78,17.08"/><path d="M147.66,71.17L148.22,80.62"/><path d="M149.70,82.20L149.04,71.06"/><path d="M148.57,16.63L149.33,16.63"/><path d="M149.81,83.47L151.10,86.19L152.65,86.32L152.89,90.41"/><path d="M150.50,83.33L149.80,83.39"/><path d="M151.10,86.19L151.84,86.12"/><path d="M152.65,86.32L153.39,86.25"/></g><g style="stroke:#000000;stroke-width:0.529"><path d="M136.70,39.04L135.70,23.17"/><path d="M138.30,64.69L136.83,41.25"/><path d="M147.85,38.54L146.77,20.21L147.78,17.08L149.33,16.63L149.08,12.35L148.32,12.36L144.57,13.55"/><path d="M152.77,90.39L152.89,90.41L153.63,90.34L153.39,86.25L151.84,86.12L150.50,83.33L147.97,40.60"/></g></g><g id="Actor_.15"><g style="stroke:#000000;stroke-width:0.176"><path d="M143.15,88.02L142.83,82.82L142.07,82.89"/><path d="M142.83,82.82L142.97,82.79L143.29,88.01"/><path d="M146.04,82.17L146.05,82.39L145.93,82.45L145.54,82.52L144.92,82.59L144.14,82.66L143.28,82.72L142.44,82.76L142.06,82.76"/><path d="M141.97,81.36L142.16,81.37L142.54,81.36L143.02,81.34L143.53,81.31L144.03,81.28L144.45,81.24L144.76,81.19L144.92,81.16L144.92,81.24L144.35,81.30L143.61,81.35L142.84,81.40L142.13,81.42L141.98,81.42"/><path d="M142.01,81.32L142.00,81.32L142.01,81.32"/><path d="M145.98,81.08L145.85,81.13L145.46,81.20L144.84,81.27L144.47,81.30L144.06,81.34L143.20,81.39L142.36,81.43L141.98,81.44"/><path d="M141.97,81.22L142.00,81.22"/><path d="M142.70,81.34L142.52,81.35"/><path d="M142.35,81.35L142.31,81.35L142.22,81.35"/><path d="M142.05,81.33L142.08,81.34L142.11,81.34"/><path d="M141.97,81.29L142.01,81.28"/><path d="M142.97,82.79L146.47,82.48L146.78,87.68"/><path d="M143.12,81.33L142.90,81.34"/><path d="M143.57,81.30L143.34,81.31"/><path d="M143.78,81.28L144.00,81.27"/><path d="M144.92,81.16L144.91,81.13L144.74,81.11"/><path d="M144.68,81.18L144.73,81.17L144.73,81.16"/><path d="M144.92,81.24L144.99,81.23L145.45,81.17L145.68,81.12L145.66,81.08L145.40,81.05L144.91,81.05L144.73,81.05"/><path d="M144.18,81.25L144.36,81.23"/><path d="M144.61,81.19L144.59,81.20L144.49,81.21"/><path d="M149.91,87.38L149.60,82.23L146.83,82.47L147.15,87.64"/><path d="M146.47,82.48L146.83,82.47"/><path d="M148.50,85.56L148.42,85.59L148.25,85.59L148.10,85.53L147.97,85.42L147.89,85.27L147.85,85.09L147.86,84.91L147.93,84.75L148.05,84.62L148.19,84.53L148.35,84.50L148.51,84.53L148.66,84.62L148.76,84.75L148.83,84.91L148.84,85.10L148.80,85.27L148.70,85.42L148.57,85.53L148.50,85.56"/><path d="M148.50,85.79L148.31,85.79L148.10,85.71L147.93,85.56L147.81,85.35L147.76,85.12L147.78,84.87L147.87,84.65L148.02,84.47L148.22,84.35L148.44,84.31L148.66,84.35L148.85,84.47L148.99,84.65L149.08,84.87L149.09,85.12L149.04,85.35L148.91,85.56L148.74,85.71L148.53,85.79L148.50,85.79"/><path d="M149.60,82.23L149.73,82.20"/></g><g style="stroke:#000000;stroke-width:0.529"><path d="M141.96,81.20L142.00,81.20"/><path d="M144.73,81.03L145.39,81.03L145.81,81.04L145.98,81.08L146.04,82.17L146.93,82.09L147.29,82.08L148.54,82.16L148.91,82.15L149.73,82.20L150.04,87.37"/></g></g><g id="Actor_.16"><g style="stroke:#000000;stroke-width:0.176"><path d="M144.73,80.97L148.57,80.64"/><path d="M152.77,90.50L156.31,90.39L156.36,91.21"/><path d="M153.61,90.04L153.90,90.06L154.91,90.08L156.20,90.05L157.62,89.98L159.02,89.88L160.23,89.75L161.13,89.61L161.62,89.47L161.65,89.36L161.21,89.28L160.37,89.24L159.21,89.24L157.87,89.29L156.47,89.38L155.17,89.49L154.10,89.63L153.59,89.73"/><path d="M156.31,90.39L164.82,89.55L164.86,90.37"/><path d="M161.59,79.53L168.05,78.97"/><path d="M164.82,89.55L165.94,89.20L165.99,90.01"/><path d="M169.06,88.07L164.93,88.47"/><path d="M165.94,89.20L171.74,88.63"/><path d="M165.90,88.78L166.01,88.76L166.17,88.74L166.59,88.70L166.98,88.70L167.12,88.70L167.19,88.72L167.19,88.73L167.11,88.75L166.98,88.77L166.59,88.81L166.36,88.82L166.16,88.82L166.00,88.82L165.90,88.81L165.87,88.80L165.90,88.78"/><path d="M169.08,88.45L169.06,88.46L169.08,88.46"/><path d="M169.76,88.51L169.58,88.51"/><path d="M169.42,88.51L169.22,88.50L169.13,88.49L169.11,88.48"/><path d="M170.61,88.47L170.39,88.49"/><path d="M170.82,88.46L171.02,88.44"/><path d="M169.96,88.50L170.17,88.50"/><path d="M171.69,87.82L171.68,87.82"/><path d="M171.69,88.32L171.69,88.33L171.66,88.34"/><path d="M171.49,88.38L171.59,88.36"/><path d="M171.20,88.42L171.36,88.40"/><path d="M171.20,78.70L173.25,78.53"/></g><g style="stroke:#000000;stroke-width:0.529"><path d="M141.96,81.16L142.00,81.16"/><path d="M144.73,80.92L148.22,80.62L148.57,80.64L148.66,82.16"/><path d="M171.78,89.43L165.99,90.01L164.86,90.37L156.36,91.21L152.82,91.32"/><path d="M153.58,89.51L159.96,88.89"/><path d="M168.57,78.88L161.59,79.48"/><path d="M171.20,78.65L172.87,78.51L173.25,78.53L173.31,79.80"/></g></g><g id="Actor_.17"><g style="stroke:#000000;stroke-width:0.176"><path d="M163.61,64.51L164.96,64.47L164.84,64.48L165.13,69.79"/><path d="M164.84,64.48L165.73,64.45L166.09,64.43L166.38,69.78"/><path d="M166.02,69.80L165.73,64.45"/><path d="M166.09,64.43L168.74,64.25L168.85,64.24L169.14,69.57L169.03,69.59L168.74,64.25"/><path d="M169.03,69.59L166.86,69.75"/><path d="M167.04,67.50L166.93,67.30L166.88,67.06L166.90,66.82L166.99,66.61L167.14,66.43L167.33,66.32L167.54,66.29L167.74,66.33L167.93,66.45L168.07,66.63L168.15,66.85L168.16,67.09L168.10,67.33L167.99,67.52L167.82,67.67L167.61,67.74L167.40,67.74L167.20,67.65L167.04,67.50"/><path d="M167.62,67.51L167.50,67.56L167.34,67.55L167.20,67.49L167.08,67.38L166.99,67.23L166.96,67.05L166.97,66.88L167.04,66.71L167.15,66.59L167.29,66.50L167.44,66.48L167.60,66.51L167.73,66.60L167.84,66.73L167.90,66.90L167.91,67.08L167.86,67.25L167.78,67.39L167.65,67.50L167.62,67.51"/><path d="M166.57,64.28L166.57,64.32L166.64,64.33L166.97,64.32L167.53,64.30L168.27,64.26L169.10,64.21L169.93,64.16L170.67,64.11L171.23,64.07L171.56,64.04L171.62,64.02L171.62,63.96"/><path d="M170.36,62.80L170.50,62.79L170.55,62.80L170.43,62.81L170.15,62.83L169.28,62.89L168.30,62.94L167.91,62.96L167.63,62.98L167.51,62.98L167.56,62.97L167.71,62.95"/><path d="M166.50,63.03L166.57,63.04L166.90,63.03L167.47,63.00L168.20,62.96L169.03,62.92L169.86,62.87L170.60,62.82L171.16,62.78L171.49,62.75L171.56,62.73"/><path d="M170.55,62.80L170.55,62.82L170.12,62.84L169.41,62.89L168.66,62.93L167.95,62.97L167.35,63.00L166.95,63.02L166.77,63.02L166.83,63.01L167.14,62.98L167.71,62.94"/><path d="M167.51,63.00L167.51,62.98"/><path d="M167.71,62.96L167.70,62.97L167.71,62.97"/><path d="M168.45,62.93L168.26,62.94"/><path d="M167.84,62.96L167.77,62.96"/><path d="M168.09,62.95L167.96,62.96"/><path d="M168.65,62.92L168.87,62.91"/><path d="M169.14,69.57L171.91,69.36"/><path d="M168.85,64.24L172.15,64.02L172.43,69.32"/><path d="M169.30,62.88L169.09,62.90"/><path d="M169.71,62.86L169.51,62.87"/><path d="M170.32,62.81L170.36,62.81L170.36,62.81"/><path d="M170.55,62.82L171.11,62.77L171.29,62.75L171.23,62.75L170.92,62.76L170.36,62.78"/><path d="M170.16,62.83L170.27,62.82"/><path d="M169.88,62.85L170.05,62.84"/><path d="M172.80,69.31L172.52,64.00L175.13,63.82L175.40,69.11"/><path d="M172.15,64.02L172.52,64.00"/><path d="M174.13,67.04L174.25,66.93L174.34,66.79L174.38,66.62L174.37,66.44L174.31,66.28L174.21,66.14L174.08,66.06L173.92,66.02L173.77,66.05L173.63,66.13L173.53,66.26L173.46,66.42L173.45,66.59L173.48,66.77L173.56,66.92L173.57,66.92L173.68,67.03L173.83,67.09L173.98,67.09L174.13,67.04"/><path d="M174.09,67.28L173.89,67.27L173.69,67.19L173.53,67.04L173.42,66.84L173.37,66.60L173.39,66.37L173.48,66.15L173.60,66.01L173.63,65.98L173.81,65.87L174.02,65.83L174.22,65.88L174.40,65.99L174.54,66.17L174.62,66.39L174.63,66.63L174.58,66.86L174.46,67.06L174.29,67.20L174.09,67.28"/><path d="M175.13,63.82L175.23,63.81"/></g><g style="stroke:#000000;stroke-width:0.529"><path d="M167.71,62.94L167.17,62.98L166.71,63.01L166.50,63.03L166.57,64.28L166.06,64.31L165.49,64.37L163.72,64.49L163.61,64.51L163.90,69.79L165.13,69.79L165.13,69.80L166.02,69.80L166.38,69.78L166.86,69.75L166.93,70.89L167.13,70.90L167.58,70.90L168.24,70.88L169.03,70.84L169.87,70.79L170.66,70.74L171.32,70.68L171.77,70.63L171.97,70.59L171.91,69.36L172.43,69.32L172.80,69.31L175.40,69.11L175.50,69.10L175.23,63.81L174.32,63.84L173.95,63.86L172.56,63.90L172.20,63.92L171.62,63.96L171.56,62.73L171.35,62.74L170.89,62.75L170.36,62.78"/></g></g><g id="Actor_.18"><g style="stroke:#000000;stroke-width:0.176"><path d="M132.71,64.92L138.33,64.73L141.52,115.74"/><path d="M138.33,64.73L140.94,64.56"/><path d="M152.58,87.25L142.40,88.21L142.39,88.09"/></g><g style="stroke:#000000;stroke-width:0.529"><path d="M141.52,115.74L139.60,115.25L134.22,88.42L132.71,64.92L133.98,64.84L139.05,64.67L140.35,64.58L140.94,64.56L142.39,88.09L151.97,87.19L152.58,87.25L153.59,104.48"/></g></g><g id="Actor_.19"><g style="stroke:#000000;stroke-width:0.176"><path d="M158.57,38.16L157.56,20.08L158.63,16.98L160.25,16.53L160.02,12.32"/><path d="M159.29,38.14L158.28,20.07L157.56,20.08"/><path d="M158.28,20.07L159.36,16.97L158.63,16.98"/><path d="M164.26,89.29L164.03,85.26L162.42,85.14L161.04,82.39L159.30,51.20"/><path d="M158.91,44.32L159.05,46.73"/><path d="M159.76,46.57L159.64,44.54"/><path d="M159.36,16.97L160.99,16.53L160.25,16.53"/><path d="M161.04,82.39L161.75,82.33L160.01,51.16"/><path d="M160.99,16.53L160.82,13.58"/><path d="M161.75,82.33L163.13,85.07L162.42,85.14"/><path d="M164.03,85.26L164.75,85.19L163.13,85.07"/><path d="M164.93,88.41L164.75,85.19"/></g><g style="stroke:#000000;stroke-width:0.529"><path d="M156.74,38.23L155.36,13.71L160.02,12.32L160.75,12.32L160.82,13.58"/><path d="M164.93,88.41L164.97,89.22L164.26,89.29L159.60,88.85L157.48,51.29"/><path d="M166.09,37.90L165.29,23.05"/><path d="M167.43,62.96L166.20,39.92"/><path d="M167.86,70.89L168.29,78.90"/></g></g><g id="Actor_.20"><g style="stroke:#000000;stroke-width:0.176"><path d="M130.62,17.97L130.95,17.87L130.68,13.61L137.83,13.58"/><path d="M130.95,17.87L136.39,23.44L136.06,23.53"/><path d="M130.68,13.61L133.42,12.67L133.36,11.81"/><path d="M133.42,12.67L137.15,12.28L148.05,12.25L151.80,11.85L151.75,10.99"/><path d="M134.25,12.94L134.31,12.96L134.44,12.98L134.62,12.99L134.84,12.98L135.07,12.97L135.29,12.95L135.47,12.92L135.60,12.89L135.65,12.86L135.63,12.83L135.54,12.81L135.46,12.81L135.18,12.80L134.95,12.81L134.72,12.82L134.52,12.85L134.36,12.88L134.27,12.91L134.25,12.94"/><path d="M136.39,23.44L138.44,23.41"/><path d="M137.15,12.28L137.09,11.41"/><path d="M138.10,12.84L137.97,12.87"/><path d="M137.88,12.90L137.83,12.91L137.82,12.93"/><path d="M138.43,12.78L138.25,12.81"/><path d="M138.64,12.75L138.85,12.73"/><path d="M139.31,12.70L139.08,12.71"/><path d="M140.13,12.70L139.95,12.69"/><path d="M140.55,12.77L140.54,12.76L140.50,12.75"/><path d="M140.29,12.71L140.41,12.73"/><path d="M139.54,12.69L139.75,12.69"/><path d="M141.22,23.36L145.15,23.30"/><path d="M140.63,13.57L144.57,13.55L144.57,13.65"/><path d="M142.74,12.93L142.86,12.95L143.04,12.95L143.25,12.95L143.48,12.94L143.70,12.92L143.88,12.89L144.01,12.86L144.07,12.83L144.06,12.80L144.00,12.79L143.82,12.77L143.62,12.77L143.24,12.79L142.96,12.82L142.80,12.85L142.71,12.88L142.68,12.91L142.74,12.93"/><path d="M148.05,12.25L148.00,11.39"/><path d="M150.75,13.19L150.41,13.17L150.04,13.08L150.00,12.96L150.27,12.83L150.85,12.70L151.66,12.58L152.62,12.48L153.63,12.43L154.56,12.41L155.32,12.44L155.83,12.51L156.02,12.62L155.89,12.75L155.71,12.81L155.45,12.88L154.75,13.01L153.85,13.11L152.87,13.19L151.91,13.22L151.05,13.22L150.75,13.19"/><path d="M150.34,12.31L150.42,12.34L150.57,12.35L150.77,12.35L150.99,12.34L151.22,12.32L151.42,12.30L151.59,12.27L151.69,12.24L151.71,12.21L151.67,12.18L151.55,12.17L151.37,12.16L151.16,12.16L150.93,12.18L150.71,12.20L150.52,12.23L150.39,12.26L150.32,12.29L150.34,12.31"/><path d="M151.80,11.85L160.55,11.83L160.51,10.98"/><path d="M155.11,13.44L154.68,13.46L154.49,13.46L154.34,13.45L154.26,13.43L154.25,13.41L154.32,13.38L154.45,13.35L154.63,13.32L154.85,13.30L155.07,13.29L155.31,13.28L155.45,13.29L155.56,13.31L155.60,13.33L155.57,13.36L155.47,13.39L155.32,13.41L155.11,13.44"/><path d="M165.57,22.96L158.45,23.08"/><path d="M158.06,12.29L158.14,12.31L158.28,12.32L158.47,12.32L158.70,12.32L158.92,12.30L159.13,12.27L159.35,12.23L159.39,12.21L159.43,12.18L159.38,12.16L159.28,12.15L159.10,12.14L158.89,12.14L158.66,12.15L158.44,12.17L158.25,12.20L158.13,12.23L158.05,12.26L158.06,12.29"/><path d="M160.82,13.47L165.06,13.45"/><path d="M160.55,11.83L161.75,12.20L172.02,12.17L171.98,11.34"/><path d="M161.87,12.87L161.76,12.86L161.72,12.83L161.75,12.80L161.80,12.79L162.02,12.74L162.22,12.72L162.45,12.70L162.66,12.69L162.86,12.70L162.99,12.71L163.07,12.73L163.07,12.75L163.00,12.78L162.87,12.81L162.68,12.84L162.25,12.87L162.04,12.88L161.87,12.87"/><path d="M161.75,12.20L161.70,11.36"/><path d="M165.03,12.87L165.01,12.86L165.03,12.85"/><path d="M165.38,12.73L165.17,12.78L165.08,12.81L165.06,12.82"/><path d="M166.14,12.63L165.92,12.65"/><path d="M165.53,12.70L165.72,12.68"/><path d="M166.58,12.60L166.36,12.61"/><path d="M167.00,12.59L166.79,12.59"/><path d="M167.59,12.63L167.55,12.62L167.49,12.61"/><path d="M167.18,12.59L167.35,12.60"/><path d="M169.85,13.43L167.76,13.44"/><path d="M167.70,12.67L167.70,12.66L167.66,12.65"/><path d="M169.88,12.84L169.76,12.84L169.65,12.82L169.62,12.80L169.66,12.77L169.76,12.74L169.92,12.71L170.34,12.67L170.56,12.67L170.75,12.67L170.89,12.68L170.96,12.70L170.96,12.72L170.88,12.75L170.75,12.78L170.56,12.81L170.12,12.84L169.88,12.84"/><path d="M172.02,12.17L173.08,12.53"/></g><g style="stroke:#000000;stroke-width:0.529"><path d="M138.44,23.49L136.06,23.53L130.62,17.97L130.30,12.87L133.36,11.81L137.09,11.41L148.00,11.39L151.75,10.99L160.51,10.98L161.70,11.36L171.98,11.34L173.04,11.70L173.08,12.53L169.85,13.43L170.06,17.49L168.10,19.93"/><path d="M144.57,13.65L145.15,23.30L144.80,23.39L141.23,23.45"/><path d="M155.72,13.60L149.15,13.63"/><path d="M165.57,22.98L165.29,23.05L158.45,23.16"/></g></g><g id="Actor_.21"><g style="stroke:#000000;stroke-width:0.176"><path d="M147.61,34.44L156.51,34.17"/></g><g style="stroke:#000000;stroke-width:0.529"><path d="M146.96,23.44L155.90,23.29"/></g></g><g id="Actor_.22"><g style="stroke:#000000;stroke-width:0.176"><path d="M149.82,71.84L158.60,71.18"/></g><g style="stroke:#000000;stroke-width:0.529"><path d="M159.20,81.75L150.45,82.53"/><path d="M149.82,71.80L158.60,71.14"/></g></g><g id="Actor_.23"><g style="stroke:#000000;stroke-width:0.176"><path d="M139.67,115.27L141.52,115.74L141.47,115.04"/><path d="M141.92,116.67L141.25,106.01L185.49,100.91"/><path d="M141.25,106.01L140.90,105.94"/></g><g style="stroke:#000000;stroke-width:0.529"><path d="M141.47,115.04L140.90,105.94L185.07,100.85L185.49,100.91L185.98,111.01L141.92,116.67L139.72,116.09L139.67,115.27"/></g></g><g id="Actor_.24"><g style="stroke:#000000;stroke-width:0.176"><path d="M164.49,80.58L165.84,80.64L165.73,80.67L166.01,85.91"/><path d="M165.73,80.67L166.61,80.72L166.97,80.70L167.26,86.00"/><path d="M166.90,86.01L166.61,80.72"/><path d="M166.97,80.70L169.61,80.47L169.72,80.44L170.00,85.72L171.58,85.57"/><path d="M172.45,79.86L172.47,80.08L172.40,80.13L172.08,80.19L171.61,80.25L171.52,80.26L170.78,80.32L169.96,80.38L169.13,80.42L168.40,80.43L167.84,80.43L167.50,80.41L167.44,80.36L167.43,80.21"/><path d="M167.37,79.09L167.44,79.13L167.77,79.15L168.33,79.15L169.07,79.13L169.89,79.09L170.72,79.04L171.10,79.01L171.45,78.98L172.01,78.91L172.34,78.85L172.40,78.80"/><path d="M169.61,80.47L169.89,85.75L167.74,85.96"/><path d="M167.79,83.48L167.76,83.30L167.78,83.06L167.87,82.84L168.01,82.66L168.20,82.55L168.41,82.51L168.61,82.55L168.80,82.67L168.94,82.84L169.02,83.06L169.03,83.30L168.97,83.53L168.85,83.73L168.68,83.88L168.48,83.95L168.27,83.95L168.08,83.87L167.91,83.73L167.80,83.53L167.79,83.48"/><path d="M168.75,83.38L168.73,83.45L168.64,83.60L168.52,83.70L168.37,83.76L168.22,83.76L168.07,83.70L167.95,83.59L167.87,83.45L167.83,83.27L167.85,83.10L167.91,82.94L168.02,82.81L168.16,82.72L168.31,82.69L168.47,82.72L168.60,82.81L168.71,82.94L168.77,83.10L168.77,83.28L168.75,83.38"/><path d="M168.57,78.94L168.50,78.94L168.00,79.00L167.70,79.05L167.63,79.10L167.81,79.13L168.21,79.14L168.81,79.13L169.52,79.10L170.26,79.06L170.97,79.00L171.40,78.96L171.39,78.88L171.28,78.91L171.00,78.95L170.61,78.99L170.14,79.02L169.64,79.05L169.16,79.07L168.77,79.08L168.50,79.07L168.38,79.05L168.42,79.02L168.57,78.99"/><path d="M168.38,79.05L168.38,79.13"/><path d="M168.57,79.03L168.56,79.04L168.57,79.04"/><path d="M168.63,79.05L168.67,79.06L168.70,79.06"/><path d="M169.72,80.44L173.00,80.16L173.26,85.19"/><path d="M169.72,79.04L169.51,79.05"/><path d="M168.95,79.06L168.82,79.06"/><path d="M169.31,79.06L169.12,79.06"/><path d="M169.89,85.75L170.00,85.72"/><path d="M170.74,78.96L170.90,78.95"/><path d="M170.37,79.00L170.57,78.98"/><path d="M169.94,79.03L170.16,79.01"/><path d="M171.17,78.90L171.21,78.89L171.20,78.89"/><path d="M171.40,78.96L171.56,78.95L171.96,78.89L172.14,78.84L172.07,78.80L171.77,78.79L171.21,78.79"/><path d="M171.12,78.91L171.10,78.92L171.02,78.93"/><path d="M171.39,78.88L171.35,78.86L171.21,78.85"/><path d="M173.00,80.16L173.36,80.14L175.96,79.91L176.21,84.91"/><path d="M173.36,80.14L173.62,85.15"/><path d="M174.38,83.15L174.36,83.14L174.25,82.94L174.21,82.71L174.23,82.47L174.32,82.25L174.46,82.08L174.65,81.97L174.85,81.93L175.05,81.97L175.23,82.08L175.37,82.26L175.45,82.48L175.46,82.71L175.41,82.94L175.29,83.14L175.12,83.28L174.93,83.36L174.72,83.36L174.52,83.28L174.38,83.15"/><path d="M174.36,82.35L174.30,82.51L174.28,82.69L174.31,82.86L174.40,83.00L174.51,83.11L174.66,83.17L174.81,83.17L174.96,83.11L175.08,83.01L175.17,82.86L175.21,82.69L175.20,82.52L175.14,82.36L175.04,82.23L174.91,82.14L174.76,82.11L174.60,82.14L174.47,82.22L174.36,82.35"/><path d="M175.96,79.91L176.06,79.89"/></g><g style="stroke:#000000;stroke-width:0.529"><path d="M171.64,86.81L171.51,86.83L170.72,86.89L169.89,86.94L169.10,86.96L168.44,86.96L167.99,86.94L167.79,86.89L167.74,85.96L167.26,86.00L166.90,86.01L166.01,85.95L166.01,85.91L164.78,85.81"/><path d="M168.57,78.92L168.03,78.97L167.58,79.04L167.37,79.09L167.43,80.21L166.92,80.26L166.36,80.40L164.60,80.55L164.49,80.58L164.74,85.19"/><path d="M176.31,84.90L176.06,79.89L175.14,79.85L174.78,79.86L173.39,79.80L173.03,79.81L172.45,79.86L172.40,78.80L172.19,78.77L171.73,78.76L171.21,78.77"/></g></g><g id="Actor_.25"><g style="stroke:#000000;stroke-width:0.176"><path d="M141.03,66.13L141.80,66.07L142.14,71.58L141.38,71.64"/><path d="M141.03,66.09L141.42,66.07L142.26,66.03L143.12,65.97L143.91,65.92L144.53,65.87L144.93,65.84L145.05,65.81L145.05,65.75"/><path d="M143.73,64.55L143.90,64.55L143.91,64.55L143.75,64.57L143.44,64.59L143.01,64.62L142.51,64.66L141.99,64.69L141.52,64.71L141.13,64.73L140.95,64.74"/><path d="M144.97,64.49L144.85,64.50L144.45,64.54L143.83,64.58L143.45,64.61L142.18,64.69L141.34,64.74L140.95,64.76"/><path d="M140.95,64.71L140.99,64.70"/><path d="M141.67,64.70L141.49,64.71"/><path d="M141.32,64.72L141.20,64.72"/><path d="M141.09,64.73L141.03,64.73"/><path d="M140.95,64.75L141.81,64.71L142.59,64.66L143.33,64.61L143.97,64.57L144.44,64.53L144.67,64.51L144.66,64.50L144.39,64.51L143.73,64.54"/><path d="M140.99,64.73L140.98,64.73"/><path d="M140.95,64.72L140.99,64.72"/><path d="M145.36,71.33L142.28,71.56L141.94,66.06L141.80,66.07"/><path d="M142.28,71.56L142.14,71.58"/><path d="M141.94,66.06L145.46,65.82L145.79,71.30"/><path d="M142.32,64.66L142.55,64.65"/><path d="M142.76,64.64L142.98,64.62"/><path d="M141.88,64.69L142.10,64.68"/><path d="M143.67,64.57L143.72,64.57L143.72,64.56"/><path d="M143.16,64.61L143.34,64.60"/><path d="M143.48,64.59L143.60,64.58"/><path d="M143.91,64.55L143.91,64.57"/><path d="M146.16,71.28L145.83,65.80L148.62,65.61L148.94,71.08"/><path d="M145.46,65.82L145.83,65.80"/><path d="M147.38,69.18L147.31,69.18L147.10,69.10L146.93,68.94L146.81,68.73L146.76,68.49L146.78,68.25L146.87,68.02L147.00,67.88L147.03,67.84L147.22,67.73L147.44,67.69L147.66,67.74L147.86,67.86L148.00,68.05L148.09,68.27L148.10,68.52L148.05,68.76L147.92,68.96L147.74,69.11L147.53,69.18L147.38,69.18"/><path d="M147.38,68.99L147.26,68.99L147.11,68.93L146.98,68.81L146.89,68.66L146.85,68.48L146.87,68.30L146.94,68.13L147.05,68.00L147.16,67.93L147.20,67.92L147.36,67.89L147.52,67.92L147.66,68.01L147.77,68.15L147.84,68.32L147.85,68.50L147.81,68.68L147.71,68.83L147.58,68.94L147.43,68.99L147.38,68.99"/><path d="M148.62,65.61L148.75,65.60"/></g><g style="stroke:#000000;stroke-width:0.529"><path d="M141.45,72.91L142.25,72.87L143.11,72.82L143.95,72.76L144.66,72.70L145.17,72.65L145.44,72.61L145.36,71.33L145.79,71.30L146.16,71.28L148.94,71.08L149.07,71.06L148.75,65.60L147.92,65.62L147.56,65.64L146.30,65.67L145.94,65.69L145.05,65.75L144.97,64.49L144.81,64.49L144.39,64.50L143.73,64.53"/><path d="M140.95,64.70L140.98,64.70"/></g></g><g id="Actor_.26"><g style="stroke:#000000;stroke-width:0.176"><path d="M150.47,82.74L159.21,81.96"/><path d="M151.05,84.47L159.31,83.72"/><path d="M150.91,84.19L159.29,83.43"/><path d="M153.51,88.35L159.54,87.77"/></g><g style="stroke:#000000;stroke-width:0.529"><path d="M153.56,89.22L159.59,88.64"/></g></g><g id="Actor_.27"><g style="stroke:#000000;stroke-width:0.176"><path d="M152.40,42.20L148.08,42.37"/><path d="M152.32,40.81L148.00,40.97"/><path d="M152.32,40.94L148.00,41.10"/><path d="M156.62,36.12L147.73,36.41"/><path d="M147.75,36.76L156.64,36.47"/><path d="M147.75,36.76L156.64,36.46"/><path d="M147.64,34.88L156.54,34.61"/></g><g style="stroke:#000000;stroke-width:0.529"><path d="M152.41,42.35L148.09,42.52"/><path d="M147.62,34.58L156.52,34.31"/></g></g><g id="Actor_.28"><g style="stroke:#000000;stroke-width:0.176"><path d="M167.71,62.97L167.71,62.97"/></g><g style="stroke:#000000;stroke-width:0.529"><path d="M166.37,37.89L165.03,12.83"/><path d="M167.71,62.97L166.48,39.90"/><path d="M168.57,79.04L168.14,70.88"/><path d="M169.05,37.80L167.72,12.68"/><path d="M169.08,88.47L169.00,86.96"/><path d="M170.36,62.81L169.15,39.80"/><path d="M171.21,78.88L170.78,70.73"/><path d="M171.71,88.31L171.63,86.81"/></g></g><g id="Actor_.29"><g style="stroke:#000000;stroke-width:0.176"><path d="M140.99,64.73L140.99,64.74"/></g><g style="stroke:#000000;stroke-width:0.529"><path d="M139.39,38.83L137.79,12.94"/><path d="M140.99,64.73L139.52,41.02"/><path d="M142.16,38.74L140.58,12.78"/><path d="M142.01,81.33L141.49,72.91"/><path d="M143.73,64.57L142.29,40.81"/><path d="M144.23,72.74L144.74,81.16"/></g></g><g/><g id="paperID" visibility="hidden" opacity="0.00" transform="scale(0.000100)"><path style="stroke:#000000;stroke-width:0.500;fill:#e6e6e6;fill-rule:evenodd" d="M-2000.00,-2000.00L2297.00,-2000.00L2297.00,2210.00L-2000.00,2210.00zM0.00,0.00L297.00,0.00L297.00,210.00L0.00,210.00z"/><path style="fill:#000000;fill-opacity:0.118" d="M3.00,210.00L297.00,210.00L297.00,3.00L300.00,3.00L300.00,213.00L3.00,213.00z"/></g><g id="ToolTip" visibility="hidden" opacity="0" transform="translate(0,0)"><rect id="ToolTipShadow" opacity="0.20" fill="black" stroke="none" x="0" y="0" width="30" height="8"/><rect id="ToolTipBG" fill="#ffffe1" stroke="black" x="0" y="0" width="30" height="8"/><text xml:space="preserve" id="ToolTipText" fill="black" x="0" y="0" width="30" height="8">tooltip</text></g></g></svg>
